<?xml version="1.0" encoding="UTF-8" standalone="no"?> <svg xmlns="http://www.w3.org/2000/svg" viewBox="0 0 58.94 64"><defs><style>.cls-1{fill:#35353d;}</style></defs><title>Asset 2</title><g id="Layer_2" data-name="Layer 2"><g id="Layer_1-2" data-name="Layer 1"><path class="cls-1" d="M58.71,19.18A32,32,0,0,0,.24,18.82,2.68,2.68,0,0,0,1.8,22.46h0A2.6,2.6,0,0,0,5.06,21.1a26.66,26.66,0,0,1,48.8.31,2.63,2.63,0,0,0,3.23,1.4h0A2.67,2.67,0,0,0,58.71,19.18Z"/><path class="cls-1" d="M43.71,24.88a2.63,2.63,0,0,0,3.18,1.31h0a2.66,2.66,0,0,0,1.57-3.69,21.3,21.3,0,0,0-38-.22A2.66,2.66,0,0,0,12,26a2.63,2.63,0,0,0,3.2-1.27,16,16,0,0,1,28.55.18Z"/><path class="cls-1" d="M29.4,21.33A10.63,10.63,0,0,0,21,25.43a2.65,2.65,0,0,0,1.26,4.1h0a2.56,2.56,0,0,0,2.88-.76,5.31,5.31,0,0,1,8.52.06,2.54,2.54,0,0,0,2.85.79h0a2.65,2.65,0,0,0,1.32-4.09A10.62,10.62,0,0,0,29.4,21.33Z"/><path class="cls-1" d="M53.4,34.67H5.4a2.67,2.67,0,0,0-2.54,3.49L7.23,51.5a2.65,2.65,0,0,0,1.49,1.62l5.19,2.2,2.29,6.86A2.66,2.66,0,0,0,18.73,64H40.06a2.66,2.66,0,0,0,2.53-1.82l2.29-6.86,5.19-2.2a2.65,2.65,0,0,0,1.49-1.62l4.37-13.34a2.67,2.67,0,0,0-2.53-3.49Zm-6.53,14-5.18,2.2a2.64,2.64,0,0,0-1.49,1.61l-2.06,6.18H20.65l-2.06-6.18a2.64,2.64,0,0,0-1.49-1.61l-5.18-2.2L9.07,40H49.72Z"/></g></g></svg>