<?xml version="1.0" encoding="UTF-8" standalone="no"?> <svg xmlns="http://www.w3.org/2000/svg" viewBox="0 0 64 64"><defs><style>.cls-1{fill:#35353d;}</style></defs><title>Asset 3</title><g id="Layer_2" data-name="Layer 2"><g id="Layer_1-2" data-name="Layer 1"><path class="cls-1" d="M32,64A32,32,0,1,1,64,32,32,32,0,0,1,32,64ZM32,5.33A26.67,26.67,0,1,0,58.67,32,26.71,26.71,0,0,0,32,5.33Z"/><path class="cls-1" d="M32,45.33a2.67,2.67,0,0,1-2.67-2.66,14.1,14.1,0,0,1,6.9-11.88,8,8,0,0,0,3.55-8.71A8,8,0,0,0,24,24a2.67,2.67,0,1,1-5.33,0,13.29,13.29,0,0,1,5-10.43A13.43,13.43,0,0,1,35.11,11a13.34,13.34,0,0,1,4,24.3,8.78,8.78,0,0,0-4.39,7.35A2.67,2.67,0,0,1,32,45.33Z"/><circle class="cls-1" cx="32" cy="50.67" r="2.67"/></g></g></svg>