<?xml version="1.0" encoding="UTF-8" standalone="no"?> <svg xmlns="http://www.w3.org/2000/svg" viewBox="0 0 64 56.93"><defs><style>.cls-1{fill:#35353d;}</style></defs><title>Asset 4</title><g id="Layer_2" data-name="Layer 2"><g id="Layer_1-2" data-name="Layer 1"><path class="cls-1" d="M58.31,56.93H5.69A5.62,5.62,0,0,1,.77,54.09a5.59,5.59,0,0,1,0-5.67L27.08,2.84a5.68,5.68,0,0,1,9.84,0L63.23,48.42a5.68,5.68,0,0,1-4.92,8.51ZM32,5.68h0L5.69,51.25H58.31L32,5.68ZM29.54,4.26h0Z"/><path class="cls-1" d="M32,37a2.84,2.84,0,0,1-2.84-2.84V20a2.84,2.84,0,0,1,5.68,0V34.14A2.84,2.84,0,0,1,32,37Z"/><circle class="cls-1" cx="32" cy="42.66" r="2.84"/></g></g></svg>